HIERARCHY
ROOT joint_Root
{
	OFFSET 0.0 0.0 0.0
	CHANNELS 6 Xposition Yposition Zposition Zrotation Xrotation Yrotation 
	JOINT Hips
	{
		OFFSET -17.1583 93.1646 452.98
		CHANNELS 6 Xposition Yposition Zposition Zrotation Xrotation Yrotation 
		JOINT Spine
		{
			OFFSET 15.7357 0.0 0.0
			CHANNELS 6 Xposition Yposition Zposition Zrotation Xrotation Yrotation 
			JOINT Chest
			{
				OFFSET 8.98455 -0.406207 0.0
				CHANNELS 6 Xposition Yposition Zposition Zrotation Xrotation Yrotation 
				JOINT Neck
				{
					OFFSET 16.3773 0.0 0.0
					CHANNELS 6 Xposition Yposition Zposition Zrotation Xrotation Yrotation 
					JOINT Head
					{
						OFFSET 6.45672 0.0 0.0
						CHANNELS 6 Xposition Yposition Zposition Zrotation Xrotation Yrotation 
						End Site
						{
							OFFSET 0.0 0.0 0.0
						}
					}
				}
				JOINT Shoulder_L
				{
					OFFSET 12.9942 -0.242716 4.98039
					CHANNELS 6 Xposition Yposition Zposition Zrotation Xrotation Yrotation 
					JOINT UpperArm_L
					{
						OFFSET 5.34809 0.0 0.0
						CHANNELS 6 Xposition Yposition Zposition Zrotation Xrotation Yrotation 
						JOINT LowerArm_L
						{
							OFFSET 24.3286 1.87007e-05 0.0
							CHANNELS 6 Xposition Yposition Zposition Zrotation Xrotation Yrotation 
							JOINT Hand_L
							{
								OFFSET 22.2916 0.0 0.0
								CHANNELS 6 Xposition Yposition Zposition Zrotation Xrotation Yrotation 
								End Site
								{
									OFFSET 0.0 0.0 0.0
								}
							}
						}
					}
				}
				JOINT Shoulder_R
				{
					OFFSET 12.9945 -0.242716 -4.98039
					CHANNELS 6 Xposition Yposition Zposition Zrotation Xrotation Yrotation 
					JOINT UpperArm_R
					{
						OFFSET -5.34813 0.0 0.0
						CHANNELS 6 Xposition Yposition Zposition Zrotation Xrotation Yrotation 
						JOINT LowerArm_R
						{
							OFFSET -24.3289 0.000322201 0.0
							CHANNELS 6 Xposition Yposition Zposition Zrotation Xrotation Yrotation 
							JOINT Hand_R
							{
								OFFSET -22.2915 -0.000108084 0.0
								CHANNELS 6 Xposition Yposition Zposition Zrotation Xrotation Yrotation 
								End Site
								{
									OFFSET 0.0 0.0 0.0
								}
							}
						}
					}
				}
			}
		}
		JOINT UpperLeg_L
		{
			OFFSET -2.19248 -6.46944 0.0
			CHANNELS 6 Xposition Yposition Zposition Zrotation Xrotation Yrotation 
			JOINT LowerLeg_L
			{
				OFFSET 39.0811 0.0 -1.23785e-05
				CHANNELS 6 Xposition Yposition Zposition Zrotation Xrotation Yrotation 
				JOINT Foot_L
				{
					OFFSET 40.9854 0.0 -1.26872e-05
					CHANNELS 6 Xposition Yposition Zposition Zrotation Xrotation Yrotation 
					JOINT Toes_L
					{
						OFFSET 11.7543 0.0 0.0
						CHANNELS 6 Xposition Yposition Zposition Zrotation Xrotation Yrotation 
						End Site
						{
							OFFSET 0.0 0.0 0.0
						}
					}
				}
			}
		}
		JOINT UpperLeg_R
		{
			OFFSET -2.19251 6.46944 0.0
			CHANNELS 6 Xposition Yposition Zposition Zrotation Xrotation Yrotation 
			JOINT LowerLeg_R
			{
				OFFSET -39.0811 -0.00228153 -0.0401928
				CHANNELS 6 Xposition Yposition Zposition Zrotation Xrotation Yrotation 
				JOINT Foot_R
				{
					OFFSET -40.9854 0.0 0.0
					CHANNELS 6 Xposition Yposition Zposition Zrotation Xrotation Yrotation 
					JOINT Toes_R
					{
						OFFSET -11.7543 0.0 0.0
						CHANNELS 6 Xposition Yposition Zposition Zrotation Xrotation Yrotation 
						End Site
						{
							OFFSET 0.0 0.0 0.0
						}
					}
				}
			}
		}
	}
}
MOTION
Frames:	6
Frame Time:	0.0333333
0.000000 0.000000 0.000000 0.000000 0.000000 -0.000000 120.922000 89.502900 219.328000 -80.094900 53.022200 169.806000 15.735700 0.000005 -0.000001 126.770000 84.562000 -124.546000 8.984550 -0.406207 -0.000000 0.833745 6.373420 4.400560 16.377300 -0.000001 -0.000001 4.963060 15.790700 3.028730 6.456720 -0.000001 -0.000000 -11.415700 19.495400 8.446270 12.994200 -0.242716 4.980390 -93.169600 6.945500 -65.395100 5.348090 -0.000007 -0.000001 -36.754600 -25.759700 21.462200 24.328600 0.000019 0.000005 1.336930 12.793800 -6.015900 22.291600 -0.000001 0.000005 21.277100 4.738000 12.468800 12.994500 -0.242716 -4.980390 88.339400 4.611650 -70.171300 -5.348130 -0.000001 -0.000004 -51.728500 1.039820 -38.612500 -24.328900 0.000322 -0.000009 -3.142050 -2.704860 -49.304800 -22.291500 -0.000108 -0.000004 6.652960 5.408290 -3.208820 -2.192480 -6.469440 -0.000000 171.972000 -11.119400 -28.135000 39.081100 -0.000007 -0.000012 -0.006819 0.028410 13.495000 40.985400 -0.000006 -0.000013 10.065500 3.723530 -61.934600 11.754300 -0.000000 0.000003 0.002103 0.050850 -14.514200 -2.192510 6.469440 -0.000001 174.153000 19.268900 -171.875000 -39.081100 -0.002282 -0.040193 -0.090765 0.175857 28.143700 -40.985400 0.000008 0.000006 -17.832400 -2.694510 -60.753200 -11.754300 -0.000006 -0.000006 -0.037871 -0.251510 -26.898700
0.000000 0.000000 0.000000 0.000000 0.000000 -0.000000 124.464000 88.928400 216.140000 -81.901000 52.086500 169.826000 15.735700 0.000005 -0.000001 128.247000 85.217300 -126.588000 8.984550 -0.406207 -0.000000 -0.333548 5.802890 3.334910 16.377300 -0.000001 -0.000001 3.834590 15.607700 3.609150 6.456720 -0.000001 -0.000000 -12.667300 19.646600 8.663690 12.994200 -0.242716 4.980390 -93.171000 7.151930 -66.011500 5.348090 -0.000007 -0.000001 -38.159400 -26.759800 21.094400 24.328600 0.000019 0.000005 1.055270 12.492100 -4.867180 22.291600 -0.000001 0.000005 19.122200 4.693320 13.279500 12.994500 -0.242716 -4.980390 88.132400 5.220900 -70.285200 -5.348130 -0.000001 -0.000004 -52.520300 3.645010 -36.115400 -24.328900 0.000322 -0.000009 -1.926030 -1.624000 -49.859700 -22.291500 -0.000108 -0.000004 6.357020 5.413330 -3.375640 -2.192480 -6.469440 -0.000000 170.184000 -10.227200 -31.706100 39.081100 -0.000007 -0.000012 0.134073 -0.357821 20.540800 40.985400 -0.000006 -0.000013 14.036200 1.956360 -56.157400 11.754300 -0.000000 0.000003 0.002273 0.059222 -14.174700 -2.192510 6.469440 -0.000001 172.805000 18.248700 -173.835000 -39.081100 -0.002282 -0.040193 0.000157 0.004900 32.643500 -40.985400 0.000008 0.000006 -17.731900 -4.307710 -55.252700 -11.754300 -0.000006 -0.000006 -0.101384 -0.447977 -35.276900
0.000000 0.000000 0.000000 0.000000 0.000000 -0.000000 128.262000 88.527000 212.612000 -83.152500 50.682600 171.484000 15.735700 0.000005 -0.000001 121.308000 85.490600 -119.958000 8.984550 -0.406207 -0.000000 -0.111290 4.592570 2.703010 16.377300 -0.000001 -0.000001 2.655740 15.249600 3.785710 6.456720 -0.000001 -0.000000 -13.294400 19.666100 8.569450 12.994200 -0.242716 4.980390 -93.348300 7.846380 -66.802100 5.348090 -0.000007 -0.000001 -41.438000 -26.523000 19.650800 24.328600 0.000019 0.000005 0.785931 12.545800 -3.613440 22.291600 -0.000001 0.000005 15.662000 4.642680 14.176500 12.994500 -0.242716 -4.980390 87.885700 5.914670 -70.289100 -5.348130 -0.000001 -0.000004 -52.691500 8.011210 -33.165100 -24.328900 0.000322 -0.000009 0.032024 0.028990 -49.057900 -22.291500 -0.000108 -0.000004 5.408980 5.417130 -3.502280 -2.192480 -6.469440 -0.000000 170.539000 -7.449330 -31.960600 39.081100 -0.000007 -0.000012 0.282728 -0.516271 28.707100 40.985400 -0.000006 -0.000013 13.859300 1.064940 -58.229800 11.754300 -0.000000 0.000003 0.002464 0.075701 -13.506600 -2.192510 6.469440 -0.000001 171.929000 15.954000 -175.183000 -39.081100 -0.002282 -0.040193 0.135452 -0.165778 38.564500 -40.985400 0.000008 0.000006 -13.971400 -6.428420 -45.975100 -11.754300 -0.000006 -0.000006 -0.128875 -0.511196 -38.072000
0.000000 0.000000 0.000000 0.000000 0.000000 -0.000000 132.035000 88.229200 208.985000 -83.842600 48.465900 174.889000 15.735700 0.000005 -0.000001 109.079000 84.904100 -107.767000 8.984550 -0.406207 -0.000000 1.833010 3.261430 2.570090 16.377300 -0.000001 -0.000001 2.294790 14.660000 3.143400 6.456720 -0.000001 -0.000000 -14.452200 19.311400 7.971500 12.994200 -0.242716 4.980390 -93.393700 8.331720 -67.743900 5.348090 -0.000007 -0.000001 -48.353800 -24.075000 14.871700 24.328600 0.000019 0.000005 0.609707 15.180400 -2.327780 22.291600 -0.000001 0.000005 12.328300 4.547380 15.816000 12.994500 -0.242716 -4.980390 87.746800 6.292450 -70.252400 -5.348130 -0.000001 -0.000004 -53.003600 12.694300 -29.788700 -24.328900 0.000322 -0.000009 1.632120 1.540190 -46.700300 -22.291500 -0.000108 -0.000004 2.994390 5.417480 -3.514180 -2.192480 -6.469440 -0.000000 170.683000 -6.941610 -28.383900 39.081100 -0.000007 -0.000012 0.448923 -0.648419 34.697200 40.985400 -0.000006 -0.000013 14.124300 1.257470 -63.582200 11.754300 -0.000000 0.000003 0.002030 0.119744 -11.720900 -2.192510 6.469440 -0.000001 171.795000 12.242600 -176.220000 -39.081100 -0.002282 -0.040193 0.256360 -0.244025 46.046000 -40.985400 0.000008 0.000006 -10.281800 -7.397760 -33.998600 -11.754300 -0.000006 -0.000006 -0.031770 -0.225464 -25.814200
0.000000 0.000000 0.000000 0.000000 0.000000 -0.000000 135.098000 87.855800 205.605000 -84.598800 47.450800 178.083000 15.735700 0.000005 -0.000001 103.208000 84.249600 -102.026000 8.984550 -0.406207 -0.000000 3.408000 2.579740 2.284260 16.377300 -0.000001 -0.000001 2.747670 14.236900 2.594460 6.456720 -0.000001 -0.000000 -14.651400 19.104100 7.238260 12.994200 -0.242716 4.980390 -93.590500 8.835390 -67.778800 5.348090 -0.000007 -0.000001 -55.948600 -19.360400 8.536970 24.328600 0.000019 0.000005 1.110970 21.407300 -3.039530 22.291600 -0.000001 0.000005 5.358890 4.508430 16.458400 12.994500 -0.242716 -4.980390 87.422300 7.038620 -69.827000 -5.348130 -0.000001 -0.000004 -52.075600 19.193900 -27.324900 -24.328900 0.000322 -0.000009 2.900330 3.338820 -41.043100 -22.291500 -0.000108 -0.000004 0.101183 5.421490 -3.649140 -2.192480 -6.469440 -0.000000 170.364000 -8.402970 -24.282600 39.081100 -0.000007 -0.000012 0.631549 -0.796076 38.427800 40.985400 -0.000006 -0.000013 14.877500 2.274350 -68.489400 11.754300 -0.000000 0.000003 0.001260 0.142703 -10.789700 -2.192510 6.469440 -0.000001 171.618000 7.659910 -179.979000 -39.081100 -0.002282 -0.040193 0.324755 -0.239569 53.310100 -40.985400 0.000008 0.000006 -9.766000 -6.929690 -19.026000 -11.754300 -0.000006 -0.000006 0.000169 0.164779 -9.890130
0.000000 0.000000 0.000000 0.000000 0.000000 -0.000000 137.828000 88.145200 202.341000 -85.422100 46.456000 -179.907000 15.735700 0.000005 -0.000001 98.535900 84.226000 -97.532700 8.984550 -0.406207 -0.000000 3.641590 1.675780 1.951000 16.377300 -0.000001 -0.000001 4.152480 14.282600 1.819770 6.456720 -0.000001 -0.000000 -13.757500 19.068400 7.308150 12.994200 -0.242716 4.980390 -93.887800 9.331200 -67.259600 5.348090 -0.000007 -0.000001 -61.903300 -10.285000 3.461230 24.328600 0.000019 0.000005 4.167860 29.060100 -8.526080 22.291600 -0.000001 0.000005 -6.477450 4.794780 11.313400 12.994500 -0.242716 -4.980390 87.236500 7.524130 -69.764400 -5.348130 -0.000001 -0.000004 -52.619000 25.471300 -24.099300 -24.328900 0.000322 -0.000009 4.717940 7.207590 -33.355100 -22.291500 -0.000108 -0.000004 -4.276880 5.412940 -3.356870 -2.192480 -6.469440 -0.000000 170.138000 -9.577880 -19.307200 39.081100 -0.000007 -0.000012 0.680075 -0.872944 37.923000 40.985400 -0.000006 -0.000013 15.538500 3.603390 -71.482800 11.754300 -0.000000 0.000003 0.000952 0.149678 -10.506600 -2.192510 6.469440 -0.000001 171.364000 3.736750 174.997000 -39.081100 -0.002282 -0.040193 0.283569 -0.159246 60.404400 -40.985400 0.000008 0.000006 -11.997000 -2.586330 -19.670200 -11.754300 -0.000006 -0.000006 0.000441 0.159886 -10.088800
